<svg id="Layer_1" data-name="Layer 1" xmlns="http://www.w3.org/2000/svg" viewBox="0 0 128.24 75">
  <defs>
    <style>
      .cls-1 {
        fill: #444;
      }

      .cls-2 {
        fill: #809a4c;
      }
    </style>
  </defs>
  <title>icon-scan</title>
  <path class="cls-1" d="M719.72,422.46H622.87a4.21,4.21,0,0,1,0-8.41h96.85a4.21,4.21,0,0,1,0,8.41" transform="translate(-618.67 -347.46)"/>
  <path class="cls-1" d="M715.41,396.07a18.35,18.35,0,0,1-8-1.84V400H634.94l0-44.18,72.51,0v5a18.41,18.41,0,0,1,8-1.83l.42,0v-3.18a8.39,8.39,0,0,0-8.39-8.39H634.92a8.4,8.4,0,0,0-8.39,8.39v44.2a8.4,8.4,0,0,0,8.39,8.39h72.52a8.39,8.39,0,0,0,8.39-8.39v-4c-.14,0-.27,0-.42,0" transform="translate(-618.67 -347.46)"/>
  <path class="cls-2" d="M715.41,400.27a22.74,22.74,0,1,1,22.74-22.73,22.76,22.76,0,0,1-22.74,22.73m0-37.06a14.33,14.33,0,1,0,14.33,14.33,14.35,14.35,0,0,0-14.33-14.33" transform="translate(-618.67 -347.46)"/>
  <path class="cls-2" d="M741.86,409.63a5,5,0,0,1-3.57-1.48l-12.74-12.74a5,5,0,0,1,7.14-7.13L745.43,401a5,5,0,0,1-3.57,8.61" transform="translate(-618.67 -347.46)"/>
</svg>
