<svg id="Layer_1" data-name="Layer 1" xmlns="http://www.w3.org/2000/svg" viewBox="0 0 130.56 75">
  <defs>
    <style>
      .cls-1 {
        fill: #444;
      }

      .cls-2 {
        fill: #809a4c;
      }
    </style>
  </defs>
  <title>icon-forward</title>
  <path class="cls-1" d="M715.13,376.24v23.81a8.39,8.39,0,0,1-8.39,8.39H634.22a8.4,8.4,0,0,1-8.39-8.39v-44.2a8.4,8.4,0,0,1,8.39-8.39h72.52a8.39,8.39,0,0,1,8.39,8.39v2.39l-8.41,4.17v-6.56l-72.5,0,0,44.18h72.48V377.49Z" transform="translate(-617.97 -347.46)"/>
  <path class="cls-1" d="M719,422.46H622.17a4.21,4.21,0,0,1,0-8.41H719a4.21,4.21,0,0,1,0,8.41" transform="translate(-617.97 -347.46)"/>
  <path class="cls-2" d="M747.71,364.44l-23.6-16.32a1.88,1.88,0,0,0-3,1.55v3.71a1.88,1.88,0,0,1-1.37,1.81c-5.79,1.62-28.27,9.16-36.81,30.26a1.88,1.88,0,0,0,2.84,2.24c12-9,27.93-10.38,33.39-10.56a1.88,1.88,0,0,1,1.95,1.88v3.71a1.88,1.88,0,0,0,3,1.53l23.6-16.73a1.87,1.87,0,0,0,0-3.08" transform="translate(-617.97 -347.46)"/>
</svg>
