<svg id="Layer_1" data-name="Layer 1" xmlns="http://www.w3.org/2000/svg" viewBox="0 0 93.08 75">
  <defs>
    <style>
      .cls-1 {
        fill: #444;
      }

      .cls-2 {
        fill: #809a4c;
      }
    </style>
  </defs>
  <title>icon-cam</title>
  <path class="cls-1" d="M678.19,376.13a12.5,12.5,0,1,1-12.5-12.5,12.5,12.5,0,0,1,12.5,12.5m-6.25,0a6.25,6.25,0,1,0-6.25,6.25,6.25,6.25,0,0,0,6.25-6.25m-28.13,0a21.88,21.88,0,1,0,21.88-21.88,21.9,21.9,0,0,0-21.88,21.88m50,0A28.13,28.13,0,1,1,665.69,348a28.12,28.12,0,0,1,28.12,28.13m-1.26,39.06c3.15,3.57,0,8.38-4.52,7.76-5.61-.77-10.12-5.32-22.34-5.32S649,422.18,643.36,423c-4.49.62-7.68-4.19-4.53-7.76l9.06-10.27a31,31,0,0,0,5.59,3.1l-6.33,7.19a46.84,46.84,0,0,1,37.08,0L677.9,408a31,31,0,0,0,5.59-3.1Z" transform="translate(-637.56 -348)"/>
  <path class="cls-2" d="M729.82,398.49l-24,16.58a1.9,1.9,0,0,1-3-1.57v-3.77a1.91,1.91,0,0,0-1.4-1.84c-5.88-1.65-28.73-9.3-37.4-30.74a1.91,1.91,0,0,1,2.89-2.29c12.24,9.18,28.37,10.55,33.93,10.74a1.91,1.91,0,0,0,2-1.91v-3.77a1.91,1.91,0,0,1,3-1.56l24,17a1.91,1.91,0,0,1,0,3.13" transform="translate(-637.56 -348)"/>
</svg>
