<?xml version="1.0" encoding="utf-8"?>
<!-- Generator: Adobe Illustrator 22.1.0, SVG Export Plug-In . SVG Version: 6.00 Build 0)  -->
<svg version="1.1" id="Layer_1" xmlns="http://www.w3.org/2000/svg" xmlns:xlink="http://www.w3.org/1999/xlink" x="0px" y="0px"
	 viewBox="0 0 191.1 71.9" style="enable-background:new 0 0 191.1 71.9;" xml:space="preserve">
<style type="text/css">
	.st0{clip-path:url(#SVGID_2_);}
	.st1{fill:#FFFFFF;}
</style>
<title>logomatch</title>
<g>
	<defs>
		<path id="SVGID_1_" d="M33.4,17.5v4.1l2.5,0.2v2.7c0,0-0.8,0.1-1.8,0.4s-1.6,0.5-1.6,0.5c-2.3,0.9-4.3,2.3-5.9,4.2l-2-1.5l0.7-1.2
			l-2.7-2.1c-0.9,0.4-1.7,1-2.3,1.9c-1.3,1.9-1.2,2.6-1.2,2.6l2.7,2.1l1-1l2.1,1.6c-1.3,2.3-2,4.9-2,7.6h-4.3l6.5,8.3l6.6-8.3h-4.3
			c0-5.9,4.8-10.6,10.6-10.6s10.6,4.8,10.6,10.6s-4.8,10.6-10.6,10.6c-3,0-5.9-1.3-7.9-3.5l-2.9,3.6c5.9,5.9,15.5,6,21.5,0.1
			s6-15.5,0.1-21.5c-1.4-1.4-3.2-2.6-5-3.4c-0.6-0.2-1.2-0.4-1.8-0.6c-0.6-0.2-1.2-0.3-1.8-0.4v-2.7l2.5-0.2v-4.1
			C41.1,17.2,39.6,17,38,17C36.4,17,34.9,17.2,33.4,17.5"/>
	</defs>
	<use xlink:href="#SVGID_1_"  style="overflow:visible;fill:#FFFFFF;"/>
	<clipPath id="SVGID_2_">
		<use xlink:href="#SVGID_1_"  style="overflow:visible;"/>
	</clipPath>
	<g class="st0">
		
			<rect x="10.5" y="10.4" transform="matrix(0.7617 -0.648 0.648 0.7617 -14.729 31.8524)" class="st1" width="50.8" height="51.2"/>
	</g>
</g>
<polygon class="st1" points="64.6,33.5 66.7,33.5 66.7,43.4 72.8,43.4 72.8,45.2 64.6,45.2 "/>
<path class="st1" d="M73.8,39.4L73.8,39.4c0-3.4,2.7-6.1,6.1-6.1s6.1,2.7,6.1,6.1l0,0c0,3.3-2.6,6-5.9,6.1c-0.1,0-0.2,0-0.2,0
	c-3.3,0.1-6.1-2.6-6.1-5.9C73.8,39.6,73.8,39.5,73.8,39.4 M83.9,39.5L83.9,39.5c0.1-2.2-1.6-4.1-3.8-4.2c-0.1,0-0.1,0-0.2,0
	c-2.2,0-4,1.8-4,4c0,0,0,0.1,0,0.1l0,0c-0.1,2.2,1.6,4.1,3.8,4.1c0.1,0,0.1,0,0.2,0c2.2,0,4-1.8,4-4C83.9,39.5,83.9,39.5,83.9,39.5"
	/>
<polygon class="st1" points="88.6,33.5 90.5,33.5 96.8,41.6 96.8,33.5 98.8,33.5 98.8,45.2 97.1,45.2 90.6,36.9 90.6,45.2 
	88.6,45.2 "/>
<path class="st1" d="M101.3,39.4L101.3,39.4c0-3.3,2.6-6,5.9-6.1c0,0,0.1,0,0.1,0c1.7-0.1,3.3,0.5,4.5,1.6l-1.3,1.6
	c-0.9-0.8-2.1-1.3-3.3-1.3c-2.2,0.1-3.9,1.9-3.8,4.1l0,0c-0.1,2.2,1.5,4,3.6,4.2c0.1,0,0.2,0,0.4,0c1,0,2-0.3,2.8-0.9v-2.2h-3v-1.8
	h5v4.9c-1.4,1.2-3.1,1.8-4.9,1.8c-3.2,0.1-5.9-2.3-6.1-5.6C101.3,39.7,101.3,39.6,101.3,39.4"/>
<path class="st1" d="M114.5,39.4L114.5,39.4c0-3.4,2.7-6.1,6.1-6.1s6.1,2.7,6.1,6.1l0,0c0,3.4-2.7,6.1-6.1,6.1
	S114.5,42.8,114.5,39.4L114.5,39.4 M124.6,39.4L124.6,39.4c0.1-2.2-1.6-4.1-3.8-4.2c-0.1,0-0.1,0-0.2,0c-2.2,0-4,1.8-4,4
	c0,0,0,0.1,0,0.1l0,0c-0.1,2.2,1.6,4.1,3.8,4.1c0.1,0,0.1,0,0.2,0c2.2,0,4-1.7,4-3.9C124.6,39.6,124.6,39.5,124.6,39.4"/>
<polygon class="st1" points="129.5,32.8 130.9,32.8 135.4,39.6 140,32.8 141.4,32.8 141.4,45.2 140,45.2 140,35.2 135.5,41.8 
	135.4,41.8 130.9,35.2 130.9,45.2 129.5,45.2 "/>
<path class="st1" d="M149.5,32.7h1.3l5.7,12.5H155l-1.5-3.3h-6.8l-1.5,3.3h-1.4L149.5,32.7z M153,40.7l-2.8-6.3l-2.8,6.3H153z"/>
<polygon class="st1" points="160.6,34.1 156.4,34.1 156.4,32.8 166.2,32.8 166.2,34.1 162,34.1 162,45.2 160.6,45.2 "/>
<path class="st1" d="M167.4,39.1L167.4,39.1c-0.1-3.5,2.6-6.3,6.1-6.4c0.1,0,0.1,0,0.2,0c1.8-0.1,3.6,0.7,4.8,2l-1,1
	c-1-1.1-2.4-1.7-3.9-1.7c-2.7,0-4.9,2.2-4.8,4.9c0,0.1,0,0.1,0,0.2l0,0c-0.1,2.7,2,5,4.7,5.1c0.1,0,0.1,0,0.2,0c1.5,0,3-0.6,4-1.8
	l0.9,0.9c-1.3,1.4-3.1,2.2-5,2.2c-3.4,0-6.2-2.7-6.2-6.1C167.4,39.3,167.4,39.2,167.4,39.1"/>
<polygon class="st1" points="181.1,32.8 182.5,32.8 182.5,38.3 189.7,38.3 189.7,32.8 191.1,32.8 191.1,45.2 189.7,45.2 189.7,39.7 
	182.5,39.7 182.5,45.2 181.1,45.2 "/>
<path class="st1" d="M64.7,47.6h2.7c0.6,0,1.2,0.2,1.7,0.6c0.3,0.3,0.4,0.6,0.4,1l0,0c0,0.7-0.4,1.3-1.1,1.5
	c0.8,0.2,1.5,0.6,1.5,1.5l0,0c0,1.1-0.9,1.8-2.3,1.8h-2.8V47.6z M68.9,49.2c0-0.7-0.6-1.2-1.6-1.2h-2.2v2.5h2.1
	C68.3,50.6,68.9,50.1,68.9,49.2L68.9,49.2z M67.3,51h-2.2v2.6h2.3c1.1,0,1.8-0.5,1.8-1.3l0,0C69.3,51.5,68.6,51,67.3,51"/>
<polygon class="st1" points="73.1,51.5 70.4,47.6 71,47.6 73.4,51.1 75.8,47.6 76.3,47.6 73.6,51.5 73.6,54 73.1,54 "/>
<polygon class="st1" points="80.3,47.6 84.8,47.6 84.8,48.1 80.8,48.1 80.8,50.7 84.4,50.7 84.4,51.2 80.8,51.2 80.8,54 80.3,54 "/>
<polygon class="st1" points="86.3,47.6 86.8,47.6 86.8,53.6 90.6,53.6 90.6,54 86.3,54 "/>
<path class="st1" d="M91.7,51.4v-3.8h0.5v3.7c-0.2,1.1,0.6,2.2,1.8,2.4c0.1,0,0.3,0,0.4,0c1.3,0,2.1-0.8,2.1-2.3v-3.8H97v3.7
	c0,1.5-1.1,2.6-2.6,2.7C92.9,54,91.7,52.8,91.7,51.4"/>
<polygon class="st1" points="98.8,47.6 103.4,47.6 103.4,48.1 99.3,48.1 99.3,50.6 102.9,50.6 102.9,51 99.3,51 99.3,53.6 
	103.4,53.6 103.4,54 98.8,54 "/>
<polygon class="st1" points="104.9,47.6 105.4,47.6 109.8,53.2 109.8,47.6 110.3,47.6 110.3,54 109.9,54 105.4,48.3 105.4,54 
	104.9,54 "/>
<path class="st1" d="M112.2,47.6h2.1c1.8-0.1,3.3,1.2,3.4,3c0,0.1,0,0.1,0,0.2l0,0c0,1.8-1.4,3.2-3.2,3.2c-0.1,0-0.1,0-0.2,0h-2.1
	V47.6z M112.6,48.1v5.5h1.7c1.5,0.1,2.8-1,2.9-2.5c0-0.1,0-0.2,0-0.2l0,0c0-1.5-1.2-2.8-2.7-2.8c-0.1,0-0.1,0-0.2,0L112.6,48.1z"/>
<path class="st1" d="M119,50.9L119,50.9c-0.1-1.8,1.3-3.3,3-3.4c1.8-0.1,3.3,1.3,3.4,3c0,0.1,0,0.2,0,0.4l0,0c0,1.8-1.4,3.3-3.1,3.3
	c0,0-0.1,0-0.1,0c-1.8,0-3.2-1.4-3.2-3.2C119,51,119,50.9,119,50.9 M125,50.9L125,50.9c0-1.5-1.2-2.7-2.7-2.7
	c-1.5,0-2.7,1.2-2.7,2.7l0,0c-0.1,1.5,1.1,2.8,2.7,2.9c0,0,0,0,0.1,0c1.5,0,2.7-1.2,2.7-2.8C125.1,51,125.1,50.9,125,50.9"/>
</svg>
