<svg id="Layer_1" data-name="Layer 1" xmlns="http://www.w3.org/2000/svg" xmlns:xlink="http://www.w3.org/1999/xlink" viewBox="0 0 191.06 71.9">
  <defs>
    <style>
      .cls-1 {
        fill: none;
      }

      .cls-2 {
        clip-path: url(#clip-path);
      }

      .cls-3 {
        fill: url(#linear-gradient);
      }

      .cls-4 {
        fill: #252627;
      }
    </style>
    <clipPath id="clip-path" transform="translate(-587.38 -348.9)">
      <path class="cls-1" d="M620.76,366.43v4.15l2.54.23v2.68s-.85.14-1.81.4-1.64.51-1.64.51a15.3,15.3,0,0,0-5.91,4.18l-2-1.54.67-1.22-2.71-2.08a5,5,0,0,0-2.26,1.89c-1.35,1.93-1.18,2.61-1.18,2.61l2.71,2.08,1-1,2.09,1.6a15,15,0,0,0-2,7.56H606l6.55,8.28,6.56-8.28H614.8a10.63,10.63,0,1,1,2.73,7.11l-2.87,3.63a15.19,15.19,0,1,0,16.5-24.78,14,14,0,0,0-1.84-.59,12.76,12.76,0,0,0-1.81-.39v-2.68l2.49-.23v-4.15a18.76,18.76,0,0,0-4.62-.47,20.75,20.75,0,0,0-4.62.47"/>
    </clipPath>
    <linearGradient id="linear-gradient" x1="-9.06" y1="2978.29" x2="-8.06" y2="2978.29" gradientTransform="matrix(0, -41.92, -41.92, 0, 125475.15, 28.6)" gradientUnits="userSpaceOnUse">
      <stop offset="0" stop-color="#6e801c"/>
      <stop offset="1" stop-color="#80845c"/>
    </linearGradient>
  </defs>
  <title>logomatch</title>
  <g class="cls-2">
    <rect class="cls-3" x="597.91" y="359.26" width="50.81" height="51.17" transform="translate(-688.19 146.73) rotate(-40.39)"/>
  </g>
  <polygon class="cls-4" points="64.61 33.5 66.67 33.5 66.67 43.36 72.85 43.36 72.85 45.24 64.61 45.24 64.61 33.5"/>
  <path class="cls-4" d="M661.19,388.3v0a6.14,6.14,0,0,1,12.28,0v0a6,6,0,0,1-6.16,6.07,6,6,0,0,1-6.12-6m10.11,0v0a4,4,0,0,0-4-4.18,4,4,0,0,0-4,4.14v0a4,4,0,0,0,4,4.15,4,4,0,0,0,4-4.12" transform="translate(-587.38 -348.9)"/>
  <polygon class="cls-4" points="88.58 33.5 90.49 33.5 96.78 41.62 96.78 33.5 98.81 33.5 98.81 45.24 97.09 45.24 90.61 36.89 90.61 45.24 88.58 45.24 88.58 33.5"/>
  <path class="cls-4" d="M688.7,388.3v0a6,6,0,0,1,6-6.08,6.33,6.33,0,0,1,4.51,1.6l-1.3,1.56a4.58,4.58,0,0,0-3.29-1.26,4,4,0,0,0-3.81,4.14v0a3.92,3.92,0,0,0,4,4.19,4.78,4.78,0,0,0,2.84-.89v-2.2h-3v-1.79h5v4.93a7.45,7.45,0,0,1-4.89,1.83,5.83,5.83,0,0,1-6.09-6" transform="translate(-587.38 -348.9)"/>
  <path class="cls-4" d="M701.85,388.3v0a6.14,6.14,0,0,1,12.28,0v0a6.14,6.14,0,0,1-12.28,0m10.11,0v0a4,4,0,0,0-4-4.18,4,4,0,0,0-4,4.14v0a4,4,0,0,0,4,4.15,3.94,3.94,0,0,0,4-4.12" transform="translate(-587.38 -348.9)"/>
  <polygon class="cls-4" points="129.49 32.81 130.91 32.81 135.44 39.59 139.97 32.81 141.39 32.81 141.39 45.24 139.98 45.24 139.98 35.17 135.46 41.83 135.39 41.83 130.86 35.19 130.86 45.24 129.49 45.24 129.49 32.81"/>
  <path class="cls-4" d="M736.88,381.62h1.32l5.66,12.52h-1.51l-1.45-3.29h-6.77l-1.47,3.29h-1.44Zm3.47,7.95-2.82-6.32-2.85,6.32Z" transform="translate(-587.38 -348.9)"/>
  <polygon class="cls-4" points="160.61 34.11 156.44 34.11 156.44 32.81 166.21 32.81 166.21 34.11 162.03 34.11 162.03 45.24 160.61 45.24 160.61 34.11"/>
  <path class="cls-4" d="M754.82,388v0a6.26,6.26,0,0,1,6.28-6.43,6.45,6.45,0,0,1,4.85,2l-1,1a5.42,5.42,0,0,0-3.9-1.7,4.88,4.88,0,0,0-4.82,5.1v0a4.9,4.9,0,0,0,4.82,5.13,5.34,5.34,0,0,0,4-1.79l.93.91a6.49,6.49,0,0,1-5,2.18,6.19,6.19,0,0,1-6.23-6.39" transform="translate(-587.38 -348.9)"/>
  <polygon class="cls-4" points="181.09 32.81 182.49 32.81 182.49 38.33 189.66 38.33 189.66 32.81 191.06 32.81 191.06 45.24 189.66 45.24 189.66 39.65 182.49 39.65 182.49 45.24 181.09 45.24 181.09 32.81"/>
  <path d="M652.07,396.53h2.65a2.34,2.34,0,0,1,1.67.57,1.42,1.42,0,0,1,.41,1v0a1.59,1.59,0,0,1-1.09,1.52c.77.2,1.45.64,1.45,1.53h0c0,1.08-.92,1.75-2.3,1.75h-2.79Zm4.24,1.62c0-.7-.57-1.18-1.6-1.18h-2.16v2.52h2.12c1,0,1.64-.47,1.64-1.32Zm-1.59,1.78h-2.17v2.57h2.33c1.1,0,1.79-.5,1.79-1.31h0c0-.79-.69-1.25-1.95-1.25" transform="translate(-587.38 -348.9)"/>
  <polygon points="73.12 51.51 70.37 47.64 70.97 47.64 73.36 51.08 75.77 47.64 76.34 47.64 73.59 51.5 73.59 54.05 73.12 54.05 73.12 51.51"/>
  <polygon points="80.33 47.64 84.85 47.64 84.85 48.08 80.81 48.08 80.81 50.71 84.44 50.71 84.44 51.15 80.81 51.15 80.81 54.05 80.33 54.05 80.33 47.64"/>
  <polygon points="86.34 47.64 86.82 47.64 86.82 53.61 90.58 53.61 90.58 54.05 86.34 54.05 86.34 47.64"/>
  <path d="M679.11,400.28v-3.75h.48v3.7a2.09,2.09,0,0,0,2.17,2.38c1.3,0,2.13-.78,2.13-2.33v-3.75h.48v3.69a2.63,2.63,0,1,1-5.26.06" transform="translate(-587.38 -348.9)"/>
  <polygon points="98.79 47.64 103.36 47.64 103.36 48.08 99.27 48.08 99.27 50.59 102.94 50.59 102.94 51.04 99.27 51.04 99.27 53.61 103.4 53.61 103.4 54.05 98.79 54.05 98.79 47.64"/>
  <polygon points="104.93 47.64 105.38 47.64 109.8 53.22 109.8 47.64 110.26 47.64 110.26 54.05 109.9 54.05 105.39 48.35 105.39 54.05 104.93 54.05 104.93 47.64"/>
  <path d="M699.55,396.53h2.13a3.2,3.2,0,0,1,3.41,3.19v0a3.21,3.21,0,0,1-3.41,3.2h-2.13Zm.48.44v5.53h1.65a2.72,2.72,0,0,0,2.92-2.74v0a2.75,2.75,0,0,0-2.92-2.77Z" transform="translate(-587.38 -348.9)"/>
  <path d="M706.43,399.76v0a3.23,3.23,0,1,1,6.45,0v0a3.22,3.22,0,0,1-3.24,3.31,3.19,3.19,0,0,1-3.21-3.29m6,0v0a2.73,2.73,0,1,0-5.46,0v0a2.78,2.78,0,0,0,2.74,2.88,2.74,2.74,0,0,0,2.72-2.86" transform="translate(-587.38 -348.9)"/>
</svg>
