<svg id="Layer_1" data-name="Layer 1" xmlns="http://www.w3.org/2000/svg" viewBox="0 0 73.49 29.83">
  <defs>
    <style>
      .cls-1 {
        fill: #809a4c;
      }

      .cls-2 {
        fill: #1a1a1a;
      }
    </style>
  </defs>
  <title>newrelease</title>
  <polygon class="cls-1" points="8.45 0.05 12.74 0.05 19.58 8.82 19.58 0.05 24.13 0.05 24.13 16.65 20.12 16.65 13.01 7.54 13.01 16.65 8.45 16.65 8.45 0.05"/>
  <polygon class="cls-1" points="27.07 0.05 40.43 0.05 40.43 3.94 31.63 3.94 31.63 6.47 39.6 6.47 39.6 10.11 31.63 10.11 31.63 12.74 40.55 12.74 40.55 16.65 27.07 16.65 27.07 0.05"/>
  <polygon class="cls-1" points="41.81 0.05 46.67 0.05 49.56 9.65 52.77 0 56.73 0 59.93 9.65 62.82 0.05 67.59 0.05 62.04 16.77 58.03 16.77 54.71 7.21 51.37 16.77 47.36 16.77 41.81 0.05"/>
  <path class="cls-2" d="M646.43,391.84h3.75a3.28,3.28,0,0,1,2.4.84,2.58,2.58,0,0,1,.7,1.87v0a2.56,2.56,0,0,1-1.76,2.55l2,2.93h-2.1l-1.76-2.63h-1.42v2.63h-1.81Zm3.64,4c.88,0,1.38-.47,1.38-1.16v0c0-.77-.54-1.17-1.42-1.17h-1.79v2.36Z" transform="translate(-646.43 -370.33)"/>
  <polygon class="cls-2" points="8.47 21.51 14.65 21.51 14.65 23.11 10.26 23.11 10.26 24.78 14.13 24.78 14.13 26.38 10.26 26.38 10.26 28.11 14.71 28.11 14.71 29.71 8.47 29.71 8.47 21.51"/>
  <polygon class="cls-2" points="16.32 21.51 18.12 21.51 18.12 28.07 22.21 28.07 22.21 29.71 16.32 29.71 16.32 21.51"/>
  <polygon class="cls-2" points="23.57 21.51 29.75 21.51 29.75 23.11 25.36 23.11 25.36 24.78 29.23 24.78 29.23 26.38 25.36 26.38 25.36 28.11 29.81 28.11 29.81 29.71 23.57 29.71 23.57 21.51"/>
  <path class="cls-2" d="M680.66,391.79h1.66l3.52,8.26H684l-.75-1.84h-3.47l-.75,1.84h-1.84Zm1.9,4.82L681.47,394l-1.09,2.66Z" transform="translate(-646.43 -370.33)"/>
  <path class="cls-2" d="M686.54,398.85l1.06-1.28a3.76,3.76,0,0,0,2.45,1c.74,0,1.18-.29,1.18-.77v0c0-.45-.28-.69-1.65-1-1.65-.42-2.72-.88-2.72-2.51v0c0-1.49,1.2-2.47,2.87-2.47a4.73,4.73,0,0,1,3,1l-.94,1.36a3.78,3.78,0,0,0-2.13-.81c-.69,0-1.05.32-1.05.72v0c0,.54.35.71,1.77,1.08,1.66.43,2.6,1,2.6,2.46v0c0,1.63-1.24,2.54-3,2.54a5.19,5.19,0,0,1-3.48-1.31" transform="translate(-646.43 -370.33)"/>
  <polygon class="cls-2" points="48.16 21.51 54.35 21.51 54.35 23.11 49.95 23.11 49.95 24.78 53.82 24.78 53.82 26.38 49.95 26.38 49.95 28.11 54.41 28.11 54.41 29.71 48.16 29.71 48.16 21.51"/>
  <polygon class="cls-1" points="60.62 23.28 59.19 23.63 58.82 22.15 61.17 21.45 62.4 21.45 62.4 29.71 60.62 29.71 60.62 23.28"/>
  <rect class="cls-1" x="64.2" y="27.84" width="1.9" height="1.88"/>
  <path class="cls-1" d="M717.17,398.19h-3.91l-.29-1.25,4.39-5.08h1.49v4.9h1.07v1.43h-1.07v1.73h-1.68Zm0-1.43v-2.49L715,396.76Z" transform="translate(-646.43 -370.33)"/>
</svg>
